<?xml version="1.0" encoding="UTF-8"?>
<!DOCTYPE svg PUBLIC "-//W3C//DTD SVG 1.1//EN" "http://www.w3.org/Graphics/SVG/1.1/DTD/svg11.dtd">
<svg xmlns="http://www.w3.org/2000/svg" version="1.1" width="320px" height="384px" style="shape-rendering:geometricPrecision; text-rendering:geometricPrecision; image-rendering:optimizeQuality; fill-rule:evenodd; clip-rule:evenodd" xmlns:xlink="http://www.w3.org/1999/xlink">
<g><path style="opacity:1" fill="#fefefe" d="M -0.5,-0.5 C 106.167,-0.5 212.833,-0.5 319.5,-0.5C 319.5,127.5 319.5,255.5 319.5,383.5C 212.833,383.5 106.167,383.5 -0.5,383.5C -0.5,255.5 -0.5,127.5 -0.5,-0.5 Z"/></g>
<g><path style="opacity:1" fill="#439775" d="M 147.5,35.5 C 195.056,32.9491 227.556,53.6157 245,97.5C 256.074,141.29 243.241,176.123 206.5,202C 185.274,214.315 162.608,217.982 138.5,213C 104.333,202.833 82.1667,180.667 72,146.5C 64.3154,105.391 77.482,72.8909 111.5,49C 122.751,42.1981 134.751,37.6981 147.5,35.5 Z"/></g>
<g><path style="opacity:1" fill="#439775" d="M 140.5,232.5 C 167.274,230.604 193.274,234.104 218.5,243C 231.11,247.954 240.944,256.12 248,267.5C 250.37,274.468 249.703,281.135 246,287.5C 239.141,296.85 230.308,303.684 219.5,308C 190.626,318.4 160.96,321.4 130.5,317C 115.955,314.893 102.288,310.227 89.5,303C 63.2617,285.34 62.9283,267.34 88.5,249C 104.911,240.139 122.244,234.639 140.5,232.5 Z"/></g>
</svg>
